<?xml version="1.0" encoding="UTF-8" standalone="no"?>
<!-- Created with Inkscape (http://www.inkscape.org/) -->

<svg
   xmlns:dc="http://purl.org/dc/elements/1.1/"
   xmlns:cc="http://creativecommons.org/ns#"
   xmlns:rdf="http://www.w3.org/1999/02/22-rdf-syntax-ns#"
   xmlns:svg="http://www.w3.org/2000/svg"
   xmlns="http://www.w3.org/2000/svg"
   xmlns:xlink="http://www.w3.org/1999/xlink"
   xmlns:sodipodi="http://sodipodi.sourceforge.net/DTD/sodipodi-0.dtd"
   xmlns:inkscape="http://www.inkscape.org/namespaces/inkscape"
   width="291.20444mm"
   height="200.75221mm"
   viewBox="0 0 1031.8268 711.32673"
   id="svg2"
   version="1.1"
   inkscape:version="0.91 r13725"
   sodipodi:docname="landscape.svg">
  <defs
     id="defs4">
    <marker
       inkscape:stockid="DotS"
       orient="auto"
       refY="0.0"
       refX="0.0"
       id="DotS"
       style="overflow:visible"
       inkscape:isstock="true">
      <path
         id="path4274"
         d="M -2.5,-1.0 C -2.5,1.7600000 -4.7400000,4.0 -7.5,4.0 C -10.260000,4.0 -12.5,1.7600000 -12.5,-1.0 C -12.5,-3.7600000 -10.260000,-6.0 -7.5,-6.0 C -4.7400000,-6.0 -2.5,-3.7600000 -2.5,-1.0 z "
         style="fill-rule:evenodd;stroke:#ff0000;stroke-width:1pt;stroke-opacity:0.66153846;fill:#ff0000;fill-opacity:0.66153846"
         transform="scale(0.2) translate(7.4, 1)" />
    </marker>
    <marker
       inkscape:stockid="DotM"
       orient="auto"
       refY="0"
       refX="0"
       id="marker6300"
       style="overflow:visible"
       inkscape:isstock="true">
      <path
         id="path6302"
         d="m -2.5,-1 c 0,2.76 -2.24,5 -5,5 -2.76,0 -5,-2.24 -5,-5 0,-2.76 2.24,-5 5,-5 2.76,0 5,2.24 5,5 z"
         style="fill:#ff0000;fill-opacity:0.66153846;fill-rule:evenodd;stroke:#ff0000;stroke-width:1pt;stroke-opacity:0.66153846"
         transform="matrix(0.4,0,0,0.4,2.96,0.4)"
         inkscape:connector-curvature="0" />
    </marker>
    <marker
       inkscape:stockid="DotM"
       orient="auto"
       refY="0"
       refX="0"
       id="marker6236"
       style="overflow:visible"
       inkscape:isstock="true">
      <path
         id="path6238"
         d="m -2.5,-1 c 0,2.76 -2.24,5 -5,5 -2.76,0 -5,-2.24 -5,-5 0,-2.76 2.24,-5 5,-5 2.76,0 5,2.24 5,5 z"
         style="fill:#ff0000;fill-opacity:0.66153846;fill-rule:evenodd;stroke:#ff0000;stroke-width:1pt;stroke-opacity:0.66153846"
         transform="matrix(0.4,0,0,0.4,2.96,0.4)"
         inkscape:connector-curvature="0" />
    </marker>
    <marker
       inkscape:stockid="DotM"
       orient="auto"
       refY="0"
       refX="0"
       id="marker6178"
       style="overflow:visible"
       inkscape:isstock="true">
      <path
         id="path6180"
         d="m -2.5,-1 c 0,2.76 -2.24,5 -5,5 -2.76,0 -5,-2.24 -5,-5 0,-2.76 2.24,-5 5,-5 2.76,0 5,2.24 5,5 z"
         style="fill:#ff0000;fill-opacity:0.66153846;fill-rule:evenodd;stroke:#ff0000;stroke-width:1pt;stroke-opacity:0.66153846"
         transform="matrix(0.4,0,0,0.4,2.96,0.4)"
         inkscape:connector-curvature="0" />
    </marker>
    <marker
       inkscape:isstock="true"
       style="overflow:visible"
       id="marker5946"
       refX="0"
       refY="0"
       orient="auto"
       inkscape:stockid="DotM"
       inkscape:collect="always">
      <path
         transform="matrix(0.4,0,0,0.4,2.96,0.4)"
         style="fill:#ff0000;fill-opacity:0.66153846;fill-rule:evenodd;stroke:#ff0000;stroke-width:1pt;stroke-opacity:0.66153846"
         d="m -2.5,-1 c 0,2.76 -2.24,5 -5,5 -2.76,0 -5,-2.24 -5,-5 0,-2.76 2.24,-5 5,-5 2.76,0 5,2.24 5,5 z"
         id="path5948"
         inkscape:connector-curvature="0" />
    </marker>
    <marker
       inkscape:isstock="true"
       style="overflow:visible"
       id="marker5894"
       refX="0"
       refY="0"
       orient="auto"
       inkscape:stockid="DotM">
      <path
         transform="matrix(0.4,0,0,0.4,2.96,0.4)"
         style="fill:#000000;fill-opacity:1;fill-rule:evenodd;stroke:#000000;stroke-width:1pt;stroke-opacity:1"
         d="m -2.5,-1 c 0,2.76 -2.24,5 -5,5 -2.76,0 -5,-2.24 -5,-5 0,-2.76 2.24,-5 5,-5 2.76,0 5,2.24 5,5 z"
         id="path5896"
         inkscape:connector-curvature="0" />
    </marker>
    <marker
       inkscape:isstock="true"
       style="overflow:visible"
       id="marker5848"
       refX="0"
       refY="0"
       orient="auto"
       inkscape:stockid="DotM">
      <path
         transform="matrix(0.4,0,0,0.4,2.96,0.4)"
         style="fill:#000000;fill-opacity:1;fill-rule:evenodd;stroke:#000000;stroke-width:1pt;stroke-opacity:1"
         d="m -2.5,-1 c 0,2.76 -2.24,5 -5,5 -2.76,0 -5,-2.24 -5,-5 0,-2.76 2.24,-5 5,-5 2.76,0 5,2.24 5,5 z"
         id="path5850"
         inkscape:connector-curvature="0" />
    </marker>
    <marker
       inkscape:stockid="EmptyDiamondM"
       orient="auto"
       refY="0"
       refX="0"
       id="EmptyDiamondM"
       style="overflow:visible"
       inkscape:isstock="true">
      <path
         id="path4267"
         d="M 0,-7.0710768 -7.0710894,0 0,7.0710589 7.0710462,0 0,-7.0710768 Z"
         style="fill:#ffffff;fill-rule:evenodd;stroke:#ff0000;stroke-width:1pt;stroke-opacity:0.48205165"
         transform="scale(0.4,0.4)"
         inkscape:connector-curvature="0" />
    </marker>
    <marker
       inkscape:stockid="SquareL"
       orient="auto"
       refY="0"
       refX="0"
       id="SquareL"
       style="overflow:visible"
       inkscape:isstock="true">
      <path
         id="path4228"
         d="M -5,-5 -5,5 5,5 5,-5 -5,-5 Z"
         style="fill:#ff0000;fill-opacity:0.48205165;fill-rule:evenodd;stroke:#ff0000;stroke-width:1pt;stroke-opacity:0.48205165"
         transform="scale(0.8,0.8)"
         inkscape:connector-curvature="0" />
    </marker>
    <marker
       inkscape:stockid="DiamondM"
       orient="auto"
       refY="0"
       refX="0"
       id="DiamondM"
       style="overflow:visible"
       inkscape:isstock="true">
      <path
         id="path4240"
         d="M 0,-7.0710768 -7.0710894,0 0,7.0710589 7.0710462,0 0,-7.0710768 Z"
         style="fill:#ff0000;fill-opacity:0.48205165;fill-rule:evenodd;stroke:#ff0000;stroke-width:1pt;stroke-opacity:0.48205165"
         transform="scale(0.4,0.4)"
         inkscape:connector-curvature="0" />
    </marker>
    <marker
       inkscape:stockid="DotL"
       orient="auto"
       refY="0"
       refX="0"
       id="DotL"
       style="overflow:visible"
       inkscape:isstock="true">
      <path
         id="path4219"
         d="m -2.5,-1 c 0,2.76 -2.24,5 -5,5 -2.76,0 -5,-2.24 -5,-5 0,-2.76 2.24,-5 5,-5 2.76,0 5,2.24 5,5 z"
         style="fill:#ff0000;fill-opacity:0.48205165;fill-rule:evenodd;stroke:#ff0000;stroke-width:1pt;stroke-opacity:0.48205165"
         transform="matrix(0.8,0,0,0.8,5.92,0.8)"
         inkscape:connector-curvature="0" />
    </marker>
    <linearGradient
       inkscape:collect="always"
       id="linearGradient4144">
      <stop
         style="stop-color:#6699ff;stop-opacity:1;"
         offset="0"
         id="stop4146" />
      <stop
         style="stop-color:#6699ff;stop-opacity:0;"
         offset="1"
         id="stop4148" />
    </linearGradient>
    <linearGradient
       inkscape:collect="always"
       xlink:href="#linearGradient4144"
       id="linearGradient4150"
       x1="0"
       y1="681.36218"
       x2="1043"
       y2="681.36218"
       gradientUnits="userSpaceOnUse"
       gradientTransform="matrix(0.69415149,0,0,1.4690141,312.86221,-1522.9307)" />
  </defs>
  <sodipodi:namedview
     id="base"
     pagecolor="#ffffff"
     bordercolor="#666666"
     borderopacity="1.0"
     inkscape:pageopacity="0.0"
     inkscape:pageshadow="2"
     inkscape:zoom="1"
     inkscape:cx="603.30703"
     inkscape:cy="315.37548"
     inkscape:document-units="px"
     inkscape:current-layer="layer1"
     showgrid="false"
     inkscape:window-width="1916"
     inkscape:window-height="1060"
     inkscape:window-x="0"
     inkscape:window-y="18"
     inkscape:window-maximized="0"
     fit-margin-top="-2"
     fit-margin-left="-2"
     fit-margin-right="-2"
     fit-margin-bottom="-2" />
  <metadata
     id="metadata7">
    <rdf:RDF>
      <cc:Work
         rdf:about="">
        <dc:format>image/svg+xml</dc:format>
        <dc:type
           rdf:resource="http://purl.org/dc/dcmitype/StillImage" />
        <dc:title />
      </cc:Work>
    </rdf:RDF>
  </metadata>
  <g
     inkscape:label="Layer 1"
     inkscape:groupmode="layer"
     id="layer1"
     transform="translate(-6.0866142,-319.94883)">
    <rect
       style="opacity:0.98000004;fill:url(#linearGradient4150);fill-opacity:1;stroke:none;stroke-width:4;stroke-miterlimit:4;stroke-dasharray:none;stroke-opacity:1"
       id="rect4142"
       width="724"
       height="1043"
       x="312.86221"
       y="-1043.5"
       rx="0"
       ry="0"
       transform="matrix(0,1,-1,0,0,0)" />
    <path
       style="fill:#003399;fill-opacity:1;fill-rule:evenodd;stroke:none;stroke-width:1px;stroke-linecap:butt;stroke-linejoin:miter;stroke-opacity:1"
       d="m -1,1033.3622 164,-396 98,132 142,-283 113,136 126,-251 201,345 84,-168 116,485 z"
       id="path4140"
       inkscape:connector-curvature="0" />
    <path
       style="fill:#ffffff;fill-opacity:1;fill-rule:evenodd;stroke:none;stroke-width:1px;stroke-linecap:butt;stroke-linejoin:miter;stroke-opacity:1"
       d="m 642.1481,370.66101 -84.85281,169.70563 85.91348,-21.92031 103.94469,33.23402 z"
       id="path6476"
       inkscape:connector-curvature="0"
       sodipodi:nodetypes="ccccc" />
    <path
       style="fill:#99cc33;fill-rule:evenodd;stroke:none;stroke-width:1px;stroke-linecap:butt;stroke-linejoin:miter;stroke-opacity:1"
       d="m 3,819.3622 c 174,-111 560,219 560,219 l -562,-1 z"
       id="path3336"
       inkscape:connector-curvature="0" />
    <path
       style="fill:#669900;fill-rule:evenodd;stroke:none;stroke-width:1px;stroke-linecap:butt;stroke-linejoin:miter;stroke-opacity:1"
       d="m 1045,858.3622 c -159,-102 -788,179 -788,179 l 788,0 z"
       id="path4138"
       inkscape:connector-curvature="0" />
    <path
       style="fill:none;fill-rule:evenodd;stroke:#ff0000;stroke-width:6;stroke-linecap:butt;stroke-linejoin:miter;stroke-miterlimit:4;stroke-dasharray:12, 6;stroke-dashoffset:0;stroke-opacity:0.66153846;marker-start:url(#marker6300);marker-end:url(#marker6300)"
       d="m 535,930.3622 -193,72 -245,-207 67,-159"
       id="path5744"
       inkscape:connector-curvature="0" />
    <path
       style="fill:none;fill-rule:evenodd;stroke:#ff0000;stroke-width:6;stroke-linecap:butt;stroke-linejoin:miter;stroke-miterlimit:4;stroke-dasharray:12, 6;stroke-dashoffset:0;stroke-opacity:0.66153846;marker-end:url(#marker5946)"
       d="m 165,636.3622 98,132 141,-283"
       id="path5812"
       inkscape:connector-curvature="0" />
    <path
       style="fill:none;fill-rule:evenodd;stroke:#ff0000;stroke-width:6;stroke-linecap:butt;stroke-linejoin:miter;stroke-miterlimit:4;stroke-dasharray:12, 6;stroke-dashoffset:0;stroke-opacity:0.66153846;marker-end:url(#marker6178)"
       d="m 403,485.3622 115,136 124,-251"
       id="path5814"
       inkscape:connector-curvature="0" />
    <path
       style="fill:none;fill-rule:evenodd;stroke:#ff0000;stroke-width:6;stroke-linecap:butt;stroke-linejoin:miter;stroke-miterlimit:4;stroke-dasharray:6, 24;stroke-dashoffset:0;stroke-opacity:0.66153846;marker-end:url(#DotS)"
       d="m 642,370.3622 203,344 83,-167"
       id="path5816"
       inkscape:connector-curvature="0" />
    <text
       xml:space="preserve"
       style="font-style:normal;font-variant:normal;font-weight:normal;font-stretch:normal;font-size:30px;line-height:125%;font-family:Sans;-inkscape-font-specification:'Sans, Normal';text-align:center;letter-spacing:0px;word-spacing:0px;writing-mode:lr-tb;text-anchor:middle;fill:#cc0000;fill-opacity:1;stroke:none;stroke-width:1px;stroke-linecap:butt;stroke-linejoin:miter;stroke-opacity:1"
       x="712"
       y="954.36218"
       id="text6430"
       sodipodi:linespacing="125%"><tspan
         sodipodi:role="line"
         id="tspan6432"
         x="712"
         y="954.36218">Review the landscape</tspan></text>
    <text
       xml:space="preserve"
       style="font-style:normal;font-variant:normal;font-weight:normal;font-stretch:normal;font-size:30px;line-height:125%;font-family:Sans;-inkscape-font-specification:'Sans, Normal';text-align:center;letter-spacing:0px;word-spacing:0px;writing-mode:lr-tb;text-anchor:middle;fill:#cc0000;fill-opacity:1;stroke:none;stroke-width:1px;stroke-linecap:butt;stroke-linejoin:miter;stroke-opacity:1"
       x="90"
       y="633.36218"
       id="text6434"
       sodipodi:linespacing="125%"><tspan
         sodipodi:role="line"
         id="tspan6436"
         x="90"
         y="633.36218">Angular</tspan></text>
    <text
       xml:space="preserve"
       style="font-style:normal;font-variant:normal;font-weight:normal;font-stretch:normal;font-size:30px;line-height:125%;font-family:Sans;-inkscape-font-specification:'Sans, Normal';text-align:center;letter-spacing:0px;word-spacing:0px;writing-mode:lr-tb;text-anchor:middle;fill:#cc0000;fill-opacity:1;stroke:none;stroke-width:1px;stroke-linecap:butt;stroke-linejoin:miter;stroke-opacity:1"
       x="321"
       y="482.36221"
       id="text6438"
       sodipodi:linespacing="125%"><tspan
         sodipodi:role="line"
         id="tspan6440"
         x="321"
         y="482.36221">Famo.us</tspan></text>
    <text
       xml:space="preserve"
       style="font-style:normal;font-variant:normal;font-weight:normal;font-stretch:normal;font-size:30px;line-height:125%;font-family:Sans;-inkscape-font-specification:'Sans, Normal';text-align:center;letter-spacing:0px;word-spacing:0px;writing-mode:lr-tb;text-anchor:middle;fill:#cc0000;fill-opacity:1;stroke:none;stroke-width:1px;stroke-linecap:butt;stroke-linejoin:miter;stroke-opacity:1"
       x="531"
       y="350.36221"
       id="text6442"
       sodipodi:linespacing="125%"><tspan
         sodipodi:role="line"
         id="tspan6444"
         x="531"
         y="350.36221">Angular ui-router transitions with  Famo.us</tspan></text>
    <text
       xml:space="preserve"
       style="font-style:normal;font-variant:normal;font-weight:normal;font-stretch:normal;font-size:30px;line-height:125%;font-family:Sans;-inkscape-font-specification:'Sans, Normal';text-align:center;letter-spacing:0px;word-spacing:0px;writing-mode:lr-tb;text-anchor:middle;fill:#cc0000;fill-opacity:1;stroke:none;stroke-width:1px;stroke-linecap:butt;stroke-linejoin:miter;stroke-opacity:1"
       x="961"
       y="531.36218"
       id="text6446"
       sodipodi:linespacing="125%"><tspan
         sodipodi:role="line"
         id="tspan6448"
         x="961"
         y="531.36218">Cordova</tspan></text>
  </g>
</svg>
